<svg version="1.1" xmlns="http://www.w3.org/2000/svg" xmlns:xlink="http://www.w3.org/1999/xlink" width="32.85423" height="43.46038"><g transform="translate(-221.4,-159.80001)"><g data-paper-data="{&quot;isPaintingLayer&quot;:true}" fill="none" fill-rule="nonzero" stroke="none" stroke-width="2" stroke-linecap="none" stroke-linejoin="miter" stroke-miterlimit="10" stroke-dasharray="" stroke-dashoffset="0" font-family="none" font-weight="none" font-size="none" text-anchor="none" style="mix-blend-mode: normal"><g><path d="M230.43496,192.29704v-22.49788h16.06991v22.49788z" fill="#9e9e9e" stroke="#000000" stroke-linecap="butt"/><path d="M247.14767,193.26124c0,4.97009 -4.17295,8.99915 -9.32055,8.99915c-5.14759,0 -9.32055,-4.02905 -9.32055,-8.99915c0,-4.97009 4.17295,-8.99915 9.32055,-8.99915c5.14759,0 9.32055,4.02905 9.32055,8.99915z" data-paper-data="{&quot;origPos&quot;:null}" fill="#ff0000" stroke="#ff0000" stroke-linecap="butt"/><path d="M249.07606,182.3337l4.17818,-4.82097v-13.17733l-4.49958,3.85678z" data-paper-data="{&quot;index&quot;:null,&quot;origPos&quot;:null}" fill="none" stroke="#ff0000" stroke-linecap="round"/><path d="M224.64979,178.7983v-9.96335h1.92839v9.96335z" data-paper-data="{&quot;origPos&quot;:null}" fill="none" stroke="#ff0000" stroke-linecap="butt"/><path d="M249.39745,178.47692v-9.96335h1.92839v9.96335z" data-paper-data="{&quot;origPos&quot;:null}" fill="none" stroke="#ff0000" stroke-linecap="butt"/><path d="M228.50657,192.29704v-24.42627h18.6411v24.42627z" data-paper-data="{&quot;origPos&quot;:null}" fill="#9e9e9e" stroke="#9e9e9e" stroke-linecap="butt"/><path d="M237.50572,160.80002l0.3214,22.81928" data-paper-data="{&quot;origPos&quot;:null}" fill="none" stroke="#ff0000" stroke-linecap="round"/><path d="M223.43954,166.18861l-0.59765,10.75775" fill="none" stroke="#ff0000" stroke-linecap="round"/><path d="M225.2325,178.4405l-1.19531,-10.1601" fill="none" stroke="#ff0000" stroke-linecap="round"/><path d="M226.42781,176.64754l0.15037,5.68616l-4.17818,-4.82097v-13.17733l4.49958,3.85678" fill="none" stroke="#ff0000" stroke-linecap="round"/><path d="M252.42571,166.78626l-3.28709,8.36714" fill="none" stroke="#ff0000" stroke-linecap="round"/></g></g></g></svg>