<svg version="1.1" xmlns="http://www.w3.org/2000/svg" xmlns:xlink="http://www.w3.org/1999/xlink" width="183.25" height="183.25"><g transform="translate(-148.25,-89.2)"><g data-paper-data="{&quot;isPaintingLayer&quot;:true}" fill="none" fill-rule="nonzero" stroke="none" stroke-width="none" stroke-linecap="none" stroke-linejoin="miter" stroke-miterlimit="10" stroke-dasharray="" stroke-dashoffset="0" font-family="none" font-weight="none" font-size="none" text-anchor="none" style="mix-blend-mode: normal"><path d="M202.41171,180.24338l-7.34857,0.48188l-20.80295,0.31348l-9.83154,0.42746h-5.12949" data-paper-data="{&quot;origPos&quot;:null}" fill="none" stroke="#00f1ff" stroke-width="5" stroke-linecap="round"/><path d="M150.75,180.825c0,-49.22237 39.90263,-89.125 89.125,-89.125c49.22237,0 89.125,39.90261 89.125,89.125c0,49.22239 -39.90263,89.125 -89.125,89.125c-49.22237,0 -89.125,-39.90261 -89.125,-89.125z" data-paper-data="{&quot;origPos&quot;:null}" fill="none" stroke="#00f1ff" stroke-width="5" stroke-linecap="butt"/><path d="M156.30695,177.3056l-2.27978,-11.39889" data-paper-data="{&quot;origPos&quot;:null}" fill="none" stroke="#00f1ff" stroke-width="5" stroke-linecap="round"/><path d="M153.45724,174.45589l2.84971,-21.08792" data-paper-data="{&quot;origPos&quot;:null}" fill="none" stroke="#00f1ff" stroke-width="5" stroke-linecap="round"/><path d="M164.85613,135.69968l-7.97921,27.35732" data-paper-data="{&quot;origPos&quot;:null}" fill="none" stroke="#00f1ff" stroke-width="5" stroke-linecap="round"/><path d="M160.86651,151.65813l0.56995,22.22782" data-paper-data="{&quot;origPos&quot;:null}" fill="none" stroke="#00f1ff" stroke-width="5" stroke-linecap="round"/><path d="M161.43646,159.63734l6.26938,17.66826" data-paper-data="{&quot;origPos&quot;:null}" fill="none" stroke="#00f1ff" stroke-width="5" stroke-linecap="round"/><path d="M161.43646,165.90672l12.53877,12.53877" data-paper-data="{&quot;origPos&quot;:null}" fill="none" stroke="#00f1ff" stroke-width="5" stroke-linecap="round"/><path d="M158.61901,191.87582l3.95733,-21.97949l23.36771,10.259l-16.52838,7.97921l18.80816,-7.40928" data-paper-data="{&quot;origPos&quot;:null}" fill="none" stroke="#00f1ff" stroke-width="5" stroke-linecap="round"/><path d="M163.14629,225.18091l-3.98961,-26.78737l14.2486,-15.3885" data-paper-data="{&quot;origPos&quot;:null}" fill="none" stroke="#00f1ff" stroke-width="5" stroke-linecap="round"/><path d="M164.28617,188.70449l-5.12949,22.79777" data-paper-data="{&quot;origPos&quot;:null}" fill="none" stroke="#00f1ff" stroke-width="5" stroke-linecap="round"/><path d="M155.73702,181.29521l1.13989,16.52838" data-paper-data="{&quot;origPos&quot;:null}" fill="none" stroke="#00f1ff" stroke-width="5" stroke-linecap="round"/><path d="M178.73628,177.7253l-7.39002,-5.20039l-6.56891,-9.30595" data-paper-data="{&quot;origPos&quot;:null}" fill="none" stroke="#00f1ff" stroke-width="3" stroke-linecap="round"/><path d="M192.4215,178.82012l-11.76929,-3.55815l-11.49559,-6.56891" data-paper-data="{&quot;origPos&quot;:null}" fill="none" stroke="#00f1ff" stroke-width="3" stroke-linecap="round"/><path d="M165.05106,195.24238l3.83186,-4.10556l9.30596,-4.10557l19.98042,-5.74779" data-paper-data="{&quot;origPos&quot;:null}" fill="none" stroke="#00f1ff" stroke-width="3" stroke-linecap="round"/><path d="M162.31401,214.6754l6.0215,19.1593" data-paper-data="{&quot;origPos&quot;:null}" fill="none" stroke="#00f1ff" stroke-width="3" stroke-linecap="round"/><path d="M156.33334,160.26667l3.24363,18.55344l7.66373,7.39002" fill="none" stroke="#00f1ff" stroke-width="0.5" stroke-linecap="round"/><path d="M154.66667,202.6v-38.66667h4.66667v38.66667z" fill="#00f1ff" stroke="none" stroke-width="none" stroke-linecap="butt"/><path d="M155.33333,211.26667v-45h3.33333v45z" fill="#00f1ff" stroke="none" stroke-width="0" stroke-linecap="butt"/><path d="M151.66667,194.6v-20h5v20z" fill="#00f1ff" stroke="none" stroke-width="0" stroke-linecap="butt"/><path d="M161,187.93333v-16h11.33333v16z" fill="#00f1ff" stroke="none" stroke-width="0" stroke-linecap="butt"/></g></g></svg>